<?xml version="1.0" standalone="no"?>
<!DOCTYPE svg PUBLIC "-//W3C//DTD SVG 20010904//EN"
 "http://www.w3.org/TR/2001/REC-SVG-20010904/DTD/svg10.dtd">
<svg version="1.0" xmlns="http://www.w3.org/2000/svg"
 width="700.000000pt" height="700.000000pt" viewBox="0 0 700.000000 700.000000"
 preserveAspectRatio="xMidYMid meet">
<metadata>
Created by potrace 1.14, written by Peter Selinger 2001-2017
</metadata>
<g transform="translate(0.000000,700.000000) scale(0.100000,-0.100000)"
fill="#000000" stroke="none">
<path d="M900 5745 l0 -515 395 0 395 0 0 -1730 0 -1730 -355 0 -355 0 0 -515
0 -515 2560 0 2560 0 0 1370 0 1370 -767 -2 -768 -3 -3 -852 -2 -853 -570 0
-570 0 0 1730 0 1730 485 0 485 0 -2 513 -3 512 -1742 3 -1743 2 0 -515z"/>
</g>
</svg>
