<?xml version="1.0" encoding="utf-8"?>
<!-- Generator: Adobe Illustrator 26.0.1, SVG Export Plug-In . SVG Version: 6.00 Build 0)  -->
<svg version="1.1" id="Layer_1" xmlns="http://www.w3.org/2000/svg" xmlns:xlink="http://www.w3.org/1999/xlink" x="0px" y="0px"
	 viewBox="0 0 150 30" style="enable-background:new 0 0 150 30;" xml:space="preserve">
<style type="text/css">
	.st0{display:none;}
	.st1{display:inline;stroke:#000000;stroke-miterlimit:10;}
	.st2{fill:#7A59E1;}
	.st3{fill:#C0E159;}
</style>
<g id="Background" class="st0">
	<rect class="st1" width="150" height="30"/>
</g>
<g id="Layer_1_00000067198442482038305600000003763019452391201198_">
	<g>
		<g>
			<polygon class="st2" points="4.3,23.8 4.3,20.1 6.1,20.1 6.1,10.9 4.1,10.9 4.1,7.1 13.4,7.1 13.4,10.9 11,10.9 11,20.1 13,20.1 
				13,15.2 17.5,15.2 17.5,23.8 			"/>
			<path class="st3" d="M13,7.5v3h-2.4v9.9h2.8v-4.9h3.8v7.9H4.7v-3h1.7v-9.9H4.5v-3H13 M13.7,6.8H13H4.5H3.7v0.8v3v0.8h0.8h1.2v8.4
				h-1H3.9v0.8v3v0.8h0.8h12.5h0.8v-0.8v-7.9v-0.8h-0.8h-3.8h-0.8v0.8v4.2h-1.3v-8.4H13h0.8v-0.8v-3V6.8L13.7,6.8z"/>
		</g>
		<g>
			<path class="st3" d="M21.6,23.4v-1.4H26v-9.4h-4.1v-1.4h5.6V22H32v1.4L21.6,23.4L21.6,23.4z M26.6,9.1c-0.7,0-1.4-0.5-1.4-1.4
				c0-0.9,0.7-1.4,1.4-1.4c0.7,0,1.3,0.5,1.3,1.4C28,8.5,27.3,9.1,26.6,9.1z"/>
		</g>
		<g>
			<path class="st3" d="M41,23.7c-2,0-3.4-0.6-4.4-1.8h-0.1v1.5h-1.3v-4h1.4c0.5,2,2.1,3,4.3,3c2.3,0,3.2-0.9,3.2-2.1
				c0-1.4-1-2.1-4.1-2.3c-2.8-0.1-4.6-1.1-4.6-3.3c0-1.9,1.3-3.6,4.3-3.6c2,0,3.3,0.5,4.2,1.6h0.1v-1.4h1.3v3.8H44
				c-0.5-2-2-2.8-4.2-2.8c-2,0-2.9,1-2.9,2.1c0,1.4,1,1.8,3.5,1.9c3.6,0.2,5.2,1.5,5.2,3.6C45.7,22.5,44,23.7,41,23.7z"/>
		</g>
		<g>
			<path class="st3" d="M57.9,23.4v-1.9h-0.1c-1.1,1.4-2.4,2.3-4.3,2.3c-2.4,0-4.2-1.4-4.2-3.7c0-2.1,1.6-3.9,4.3-3.9
				c1.7,0,3.3,0.2,4.2,0.6v-0.8c0-2.2-1.4-3.5-3.8-3.5c-0.9,0-1.8,0.2-2.5,0.5c0.2,0.3,0.3,0.6,0.3,1c0,0.8-0.5,1.4-1.3,1.4
				c-0.7,0-1.3-0.6-1.3-1.4c0-1.2,1.2-2.7,4.7-2.7c3.5,0,5,2.1,5,4.7v6.3h2.2v1.4h-3.4C57.9,23.6,57.9,23.4,57.9,23.4z M57.8,18.1
				c-0.8-0.4-2.2-0.6-3.9-0.6c-2,0-3,1.2-3,2.5c0,1.4,0.9,2.3,2.7,2.3c2.1,0,3.7-1.3,4.2-3V18.1z"/>
		</g>
		<g>
			<polygon class="st2" points="75.7,23.8 75.7,20.1 77.4,20.1 77.4,10.9 75.5,10.9 75.5,7.1 84.7,7.1 84.7,10.9 82.4,10.9 
				82.4,20.1 84.5,20.1 84.5,15.2 89,15.2 89,23.8 			"/>
			<path class="st3" d="M84.3,7.5v3H82v9.9h2.8v-4.9h3.8v7.9H76v-3h1.7v-9.9h-1.9v-3H84.3 M85.1,6.8h-0.8h-8.5h-0.8v0.8v3v0.8h0.8
				H77v8.4h-1h-0.8v0.8v3v0.8H76h12.6h0.8v-0.8v-7.9v-0.8h-0.8h-3.8h-0.8v0.8v4.2h-1.3v-8.4h1.6h0.8v-0.8v-3V6.8L85.1,6.8z"/>
		</g>
		<g>
			<path class="st3" d="M100.7,23.4v-1.9h-0.1c-1.1,1.4-2.4,2.3-4.3,2.3c-2.4,0-4.2-1.4-4.2-3.7c0-2.1,1.6-3.9,4.3-3.9
				c1.7,0,3.3,0.2,4.2,0.6v-0.8c0-2.2-1.4-3.5-3.8-3.5c-0.9,0-1.8,0.2-2.5,0.5c0.2,0.3,0.3,0.6,0.3,1c0,0.8-0.5,1.4-1.3,1.4
				c-0.7,0-1.3-0.6-1.3-1.4c0-1.2,1.2-2.7,4.7-2.7c3.5,0,5,2.1,5,4.7v6.3h2.1v1.4h-3.3C100.7,23.6,100.7,23.4,100.7,23.4z
				 M100.6,18.1c-0.8-0.4-2.2-0.6-3.9-0.6c-2,0-3,1.2-3,2.5c0,1.4,0.9,2.3,2.7,2.3c2.1,0,3.7-1.3,4.2-3
				C100.6,19.4,100.6,18.1,100.6,18.1z"/>
		</g>
		<g>
			<path class="st3" d="M117.1,8.8c-0.6-0.3-1.2-0.5-1.9-0.5c-2.2,0-3.3,1.7-3.3,4.4h4.8v1.4h-4.8v8h4.2v1.4h-9.3v-1.4h3.4v-8h-3.7
				v-1.4h3.7c0-4,2-6,4.7-6c0.9,0,1.6,0.2,2.4,0.7L117.1,8.8z"/>
		</g>
		<g>
			<path class="st3" d="M131.4,8.8c-0.6-0.3-1.2-0.5-1.9-0.5c-2.2,0-3.3,1.7-3.3,4.4h4.8v1.4h-4.8v8h4.2v1.4h-9.3v-1.4h3.4v-8h-3.7
				v-1.4h3.7c0-4,2-6,4.7-6c0.9,0,1.6,0.2,2.4,0.7L131.4,8.8z"/>
		</g>
		<g>
			<path class="st3" d="M140.9,23.7c-2,0-3.4-0.6-4.4-1.8h-0.1v1.5h-1.3v-4h1.4c0.5,2,2.1,3,4.3,3c2.3,0,3.2-0.9,3.2-2.1
				c0-1.4-1-2.1-4.1-2.3c-2.8-0.1-4.6-1.1-4.6-3.3c0-1.9,1.3-3.6,4.3-3.6c2,0,3.3,0.5,4.2,1.6h0.1v-1.4h1.3v3.8h-1.4
				c-0.5-2-2-2.8-4.2-2.8c-2,0-2.9,1-2.9,2.1c0,1.4,1,1.8,3.5,1.9c3.6,0.2,5.2,1.5,5.2,3.6C145.5,22.5,143.9,23.7,140.9,23.7z"/>
		</g>
	</g>
</g>
</svg>
