<?xml version="1.0" encoding="utf-8"?>
<!-- Generator: Adobe Illustrator 26.0.1, SVG Export Plug-In . SVG Version: 6.00 Build 0)  -->
<svg version="1.1" xmlns="http://www.w3.org/2000/svg" xmlns:xlink="http://www.w3.org/1999/xlink" x="0px" y="0px"
	 viewBox="0 0 150 30" style="enable-background:new 0 0 150 30;" xml:space="preserve">
<style type="text/css">
	.st0{display:none;}
	.st1{display:inline;stroke:#000000;stroke-miterlimit:10;}
	.st2{fill:#FFFFFF;}
</style>
<g id="Layer_2" class="st0">
	<rect class="st1" width="150" height="30"/>
</g>
<g id="Layer_1">
	<g>
		<g>
			<g>
				<polygon class="st2" points="5,23.7 5,20.2 6.6,20.2 6.6,10.8 4.8,10.8 4.8,7.2 13.8,7.2 13.8,10.8 11.4,10.8 11.4,20.2 
					13.6,20.2 13.6,15.2 17.9,15.2 17.9,23.7 				"/>
				<path class="st2" d="M13.5,7.5v3h-2.4v10h2.8v-5h3.7v7.9H5.2v-2.9h1.7v-10H5v-3H13.5 M14,7h-0.5H5H4.5v0.5v3V11H5h1.4v9H5.2H4.7
					v0.5v2.9v0.5h0.5h12.4h0.5v-0.5v-7.9V15h-0.5h-3.7h-0.5v0.5V20h-1.8v-9h1.9H14v-0.5v-3V7L14,7z"/>
			</g>
		</g>
		<g>
			<path class="st2" d="M22.1,23.4V22h4.3v-9.4h-4.1v-1.4H28V22h4.4v1.4H22.1L22.1,23.4z M27.1,9.1c-0.7,0-1.4-0.5-1.4-1.4
				s0.7-1.4,1.4-1.4c0.7,0,1.3,0.5,1.3,1.4C28.5,8.5,27.8,9.1,27.1,9.1z"/>
		</g>
		<g>
			<path class="st2" d="M41.5,23.7c-2,0-3.4-0.6-4.4-1.8H37v1.5h-1.3v-4h1.4c0.5,2,2.1,3,4.3,3c2.3,0,3.2-0.9,3.2-2.1
				c0-1.4-1-2.1-4.1-2.3c-2.8-0.1-4.6-1.1-4.6-3.3c0-1.9,1.3-3.6,4.3-3.6c2,0,3.3,0.5,4.2,1.6h0.1v-1.4h1.3v3.8h-1.4
				c-0.5-2-2-2.8-4.2-2.8c-2,0-2.9,1-2.9,2.1c0,1.4,1,1.8,3.5,1.9c3.6,0.2,5.2,1.5,5.2,3.6C46.2,22.5,44.5,23.7,41.5,23.7z"/>
		</g>
		<g>
			<path class="st2" d="M58.4,23.4v-1.9h-0.1c-1.1,1.4-2.4,2.3-4.3,2.3c-2.4,0-4.2-1.4-4.2-3.7c0-2.1,1.6-3.9,4.3-3.9
				c1.7,0,3.3,0.2,4.2,0.6V16c0-2.2-1.4-3.5-3.8-3.5c-0.9,0-1.8,0.2-2.5,0.5c0.2,0.3,0.3,0.6,0.3,1c0,0.8-0.5,1.4-1.3,1.4
				c-0.7,0-1.3-0.6-1.3-1.4c0-1.2,1.2-2.7,4.7-2.7s5,2.1,5,4.7v6.3h2.1v1.4h-3.3v-0.3H58.4z M58.3,18.1c-0.8-0.4-2.2-0.6-3.9-0.6
				c-2,0-3,1.2-3,2.5c0,1.4,0.9,2.3,2.7,2.3c2.1,0,3.7-1.3,4.2-3V18.1z"/>
		</g>
		<g>
			<g>
				<polygon class="st2" points="76.2,23.7 76.2,20.2 78,20.2 78,10.8 76.2,10.8 76.2,7.2 85,7.2 85,10.8 82.8,10.8 82.8,20.2 
					85,20.2 85,15.2 89.3,15.2 89.3,23.7 				"/>
				<path class="st2" d="M84.8,7.5v3h-2.3v10h2.8v-5h3.8v7.9H76.5v-2.9h1.8v-10h-1.9v-3H84.8 M85.3,7h-0.5h-8.4h-0.5v0.5v3V11h0.5
					h1.4v9h-1.3H76v0.5v2.9v0.5h0.5h12.6h0.5v-0.5v-7.9V15h-0.5h-3.8h-0.5v0.5V20H83v-9h1.8h0.5v-0.5v-3V7L85.3,7z"/>
			</g>
		</g>
		<g>
			<path class="st2" d="M101.2,23.4v-1.9h-0.1c-1.1,1.4-2.4,2.3-4.3,2.3c-2.4,0-4.2-1.4-4.2-3.7c0-2.1,1.6-3.9,4.3-3.9
				c1.7,0,3.3,0.2,4.2,0.6V16c0-2.2-1.4-3.5-3.8-3.5c-0.9,0-1.8,0.2-2.5,0.5c0.2,0.3,0.3,0.6,0.3,1c0,0.8-0.5,1.4-1.3,1.4
				c-0.7,0-1.3-0.6-1.3-1.4c0-1.2,1.2-2.7,4.7-2.7s5,2.1,5,4.7v6.3h2.2v1.4H101v-0.3H101.2z M101.1,18.1c-0.8-0.4-2.2-0.6-3.9-0.6
				c-2,0-3,1.2-3,2.5c0,1.4,0.9,2.3,2.7,2.3c2.1,0,3.7-1.3,4.2-3C101.1,19.4,101.1,18.1,101.1,18.1z"/>
		</g>
		<g>
			<path class="st2" d="M117.6,8.8c-0.6-0.3-1.2-0.5-1.9-0.5c-2.2,0-3.3,1.7-3.3,4.4h4.8v1.4h-4.8v8h4.2v1.4h-9.3v-1.4h3.4v-8H107
				v-1.4h3.7c0-4,2-6,4.7-6c0.9,0,1.6,0.2,2.4,0.7L117.6,8.8z"/>
		</g>
		<g>
			<path class="st2" d="M131.9,8.8c-0.6-0.3-1.2-0.5-1.9-0.5c-2.2,0-3.3,1.7-3.3,4.4h4.8v1.4h-4.8v8h4.2v1.4h-9.3v-1.4h3.4v-8h-3.7
				v-1.4h3.7c0-4,2-6,4.7-6c0.9,0,1.6,0.2,2.4,0.7L131.9,8.8z"/>
		</g>
		<g>
			<path class="st2" d="M141.4,23.7c-2,0-3.4-0.6-4.4-1.8h-0.1v1.5h-1.3v-4h1.4c0.5,2,2.1,3,4.3,3c2.3,0,3.2-0.9,3.2-2.1
				c0-1.4-1-2.1-4.1-2.3c-2.8-0.1-4.6-1.1-4.6-3.3c0-1.9,1.3-3.6,4.3-3.6c2,0,3.3,0.5,4.2,1.6h0.1v-1.4h1.3v3.8h-1.4
				c-0.5-2-2-2.8-4.2-2.8c-2,0-2.9,1-2.9,2.1c0,1.4,1,1.8,3.5,1.9c3.6,0.2,5.2,1.5,5.2,3.6C146,22.5,144.4,23.7,141.4,23.7z"/>
		</g>
	</g>
</g>
</svg>
